<svg width="200" height="200" version="1.1" viewBox="0 0 52.917 52.917" xmlns="http://www.w3.org/2000/svg">
 <g fill="#fff">
  <path d="m29.525 48.219s-4.1056-1.0482-4.9791-1.8344c-0.87353-0.78617-4.8044-3.7562-2.7079-8.2985 2.0965-4.5424 2.5332-6.2021 2.8826-11.181 0.34941-4.9791-2.2712-7.3376 1.2229-8.6479 3.4941-1.3103 7.2503-0.1747 9.4341 0.08735 2.1838 0.26206 6.9882-1.3976 8.7353-0.78618 1.7471 0.61147 5.94 1.8344 6.3768 2.5332 0.43676 0.69882 1.1356 8.2985 1.1356 11.618 0 3.3194-1.7471 8.0365-1.6597 10.919 0.08735 2.8826 1.7471 6.7262 1.3976 7.1629-0.34941 0.43677-3.7562 1.7471-7.3376 1.5724-3.5815-0.17471-8.2112-1.8344-14.501-3.1447z"/>
  <path transform="scale(.26458)" d="m128.43 2.6406-72.303 47.873 13.865 0.99023-1.3203 79.896 10.564 10.234c5.6126-8.2538 7.5932-19.808 9.9043-32.354 2.3111-12.546-1.9805-29.054-1.9805-32.355s2.6406-10.566 11.225-13.207c8.584-2.6412 24.102 0.66181 32.025 1.9824 7.9236 1.3206 25.752-2.6425 32.686-2.9727 6.9332-0.33015 23.771 7.5938 23.771 7.5938l-0.66016-17.498h9.9043zm8.1043 14.259 27.882 21.727-0.0815 3.4682-76.266 0.66016 0.24754-5.2826 28.829-20.023z"/>
  <path d="m28.172 9.8048-2.4034-0.18974 0.03163-0.8222 2.4982 0.15812s-0.75896-1.5495 0.88545-1.6128c1.6444-0.063247 0.60084 1.6444 0.60084 1.6444l3.3204 0.12649-0.09486 0.79058-3.3204 0.09486v1.012s-1.6675 0.01584-1.6598-0.08386c0.02715-0.37466 0.09062-0.74586 0.14192-1.1178z"/>
  <path transform="scale(.26458)" d="m2.3105 88.811-0.16016 3.8496 62.068 3.3516 0.078125-4.5586-61.986-2.6426zm-0.23828 5.6953-1.4941 35.822 28.906-0.26562 1.3848-33.658-28.797-1.8984zm30.447 1.7344-1.0742 33.805 32.191-0.29492 0.54688-31.734-31.664-1.7754z"/>
 </g>
</svg>
