<svg width="200" height="200" version="1.1" viewBox="0 0 52.917 52.917" xmlns="http://www.w3.org/2000/svg">
 <g fill="#fff">
  <path d="m5.94 49.265s2.0091 1.1345 4.455-4.6713c2.4459-5.8058 0.61147-15.478 0.17471-17.947-0.43677-2.4691-2.7079-5.0814-2.7079-5.0814l2.7953-1.5555c2.6366 3.1762 3.5363 3.258 3.8435 6.9001l3.9309-3.6703 3.7562-0.22082c-3.6585 6.7024-3.3047 9.7685-1.5724 17.449-0.08735 2.6026 4.8044 9.4652 4.8044 9.4652s-3.6688 1.4681-8.0365 1.2679c-4.3676-0.2002-8.9974 1.2679-10.832 0.13347-1.8344-1.1345-3.8435-2.0687-0.61147-2.0687z"/>
  <path d="m11.094 22.799c0.43676-0.087353-2.6206 1.5724-4.7171 0.26206-2.0965-1.3103-0.34941-4.0182-2.3585-5.0665-2.0091-1.0482-6.2021-4.455-2.3585-8.8226 3.8435-4.3676-0.52412-6.1147 2.4459-6.4641 2.97-0.34941 4.455-1.7471 8.7353-1.5724 4.2803 0.17471 5.3285 5.1538 8.2985 3.7562 2.97-1.3976 0.26206-4.7171 4.8044-2.5332 4.5424 2.1838 5.5906 7.6871 3.7562 10.22-1.8344 2.5332 3.0574 2.4459 1.5724 5.3285-1.485 2.8826-4.3676 7.0756-7.0756 6.6388-2.7079-0.43676-0.52412 1.2229-3.7562 1.8344-3.2321 0.61147-9.3468-3.5815-9.3468-3.5815z"/>
  <path d="m46.061 45.31s-1.4893 0.84096-3.3025-3.4628-0.45328-11.474-0.12951-13.304c0.32377-1.8303 2.0074-3.7668 2.0074-3.7668l-2.0721-1.1531c-1.9545 2.3545-2.6215 2.4152-2.8492 5.115l-3.438-5.1666-4.7062-1.0372c2.712 4.9684 4.8956 10.561 3.6115 16.254 0.06475 1.9293-3.5615 7.0165-3.5615 7.0165s2.7197 1.0883 5.9574 0.9399c3.2377-0.1484 6.6697 0.9399 8.0295 0.09894 1.3598-0.84096 2.8492-1.5335 0.45328-1.5335z"/>
  <path d="m34.017 24.266c0.32377-0.06475-1.9426 1.1656-3.4967 0.19426-1.5541-0.97131-0.61277-2.9259-0.61277-2.9259s0.67836-0.85594 2.1388-3.2207c2.1098-3.4162-2.994-3.7308-1.7684-5.578 1.9396-2.9233 1.8611-4.6582 5.0341-4.5287s3.95 3.8205 6.1516 2.7844c2.2016-1.0361 0.19426-3.4967 3.5615-1.8779 3.3672 1.6188 4.1443 5.6984 2.7844 7.5762-1.3598 1.8779 2.2664 1.8131 1.1656 3.95-1.1008 2.1369-3.2377 5.2451-5.2451 4.9213-2.0074-0.32377-0.38852 0.90656-2.7844 1.3598-2.3959 0.45328-6.9287-2.6549-6.9287-2.6549z"/>
  <path d="m23.132 41.724s0.24707 0.92652 1.2662 1.0501c1.0192 0.12354 2.3781 0.37061 3.2428 0.12354 0.86475-0.24707 2.1928 0.09265 2.9031 0.27796 0.71033 0.1853 0.7721 1.3589 1.1118 1.0501 0.33972-0.30884-0.09265-0.61768-0.15442-1.1736-0.06177-0.55591 0.43238-0.58679 1.0501-0.49414 0.61768 0.09265 0.86475 0.09265 0.86475 0.09265s-0.03088-0.86475 0.33972-1.3898c0.37061-0.52503 0.52503-1.2354 0.52503-1.2354s-0.74121 0.1853-1.6677 0.03088c-0.92652-0.15442-1.3898 0-1.9457-0.98829-0.55591-0.98828-0.61768-2.6869 0.12354-3.8914 0.74121-1.2045 0.52503-3.2428 0-4.4164-0.52503-1.1736-1.6986-2.5634-2.0075-3.5516-0.30884-0.98829 0.37061-4.1076 0.37061-4.1076s-0.83387 0.7721-1.3898 1.4207c-0.55591 0.64856-1.0192 1.0192-1.606 1.1736-0.58679 0.15442-2.1619 0.21619-2.5016 0.15442-0.33972-0.06177-0.37061 0.92652 0.33972 1.6677s1.4515 4.4782 1.4207 5.7135c-0.03088 1.2354-0.55591 3.5825-0.83387 4.4473-0.27796 0.86475 0.21619 2.6869-0.55591 2.934-0.7721 0.24707-4.5091 1.2971-0.89563 1.1118z"/>
 </g>
</svg>
