<?xml version="1.0" encoding="UTF-8" standalone="no"?>
<!-- Created with Inkscape (http://www.inkscape.org/) -->

<svg
   width="512"
   height="512"
   viewBox="0 0 135.46666 135.46667"
   version="1.1"
   id="svg5"
   inkscape:version="1.1.1 (3bf5ae0d25, 2021-09-20)"
   sodipodi:docname="hw40a_emoji_reallyhappy.svg"
   xmlns:inkscape="http://www.inkscape.org/namespaces/inkscape"
   xmlns:sodipodi="http://sodipodi.sourceforge.net/DTD/sodipodi-0.dtd"
   xmlns="http://www.w3.org/2000/svg"
   xmlns:svg="http://www.w3.org/2000/svg">
  <sodipodi:namedview
     id="namedview7"
     pagecolor="#505050"
     bordercolor="#ffffff"
     borderopacity="1"
     inkscape:pageshadow="0"
     inkscape:pageopacity="0"
     inkscape:pagecheckerboard="1"
     inkscape:document-units="mm"
     showgrid="false"
     inkscape:zoom="1.4681257"
     inkscape:cx="195.82792"
     inkscape:cy="232.60951"
     inkscape:window-width="1920"
     inkscape:window-height="1009"
     inkscape:window-x="1912"
     inkscape:window-y="-8"
     inkscape:window-maximized="1"
     inkscape:current-layer="g831"
     units="px" />
  <defs
     id="defs2" />
  <g
     inkscape:label="Ebene 1"
     inkscape:groupmode="layer"
     id="layer1">
    <g
       id="g831"
       transform="matrix(0.58671754,0,0,0.58671754,6.1279916,-19.394221)">
      <circle
         style="opacity:1;fill:#ff2c2c;fill-opacity:1;stroke:none;stroke-width:0.191754"
         id="path2565"
         cx="132.80029"
         cy="106.50668"
         r="6.4755135" />
      <circle
         style="opacity:1;fill:#ff2c2c;fill-opacity:1;stroke:none;stroke-width:0.191754"
         id="circle2647"
         cx="81.479088"
         cy="106.04594"
         r="6.4755135" />
      <path
         id="path869"
         style="opacity:1;fill:#ffffff;fill-opacity:1;stroke:none;stroke-width:0.507348px;stroke-linecap:butt;stroke-linejoin:miter;stroke-opacity:1"
         d="m 110.00907,46.233059 -6.59751,8.06407 h -2.4436 l -4.88719,-5.375715 -7.330795,8.307835 -8.797351,0.244756 -0.24376,5.37572 -30.05645,-2.687366 -3.909163,7.086039 -6.598506,0.977042 -5.375715,19.548781 27.535735,55.785179 12.783623,8.56961 6.108997,6.65208 3.665396,-7.08703 6.597513,8.17912 1.710323,7.55498 4.154903,-5.37572 4.39769,-2.57487 1.95507,8.63239 4.64343,-8.87615 6.59752,2.08536 2.68736,4.64244 2.68836,-5.11039 6.84226,-7.66282 2.68737,6.109 5.13195,-4.94077 10.17859,-7.01387 32.09585,-62.50065 -1.2218,-3.665397 -3.6654,-1.710318 -0.24475,-6.353751 -9.28588,-3.665397 -1.22179,-10.262909 -15.63863,-1.465568 -1.2218,-5.131949 -11.72947,4.398673 -3.66539,-2.443595 -8.55259,1.710318 -1.71033,-6.353751 z m 46.4958,69.395611 c -13.58383,-6.17479 -27.07337,-10.70509 -40.50868,4.41198 l -4.26958,-11.31519 c 21.71719,-46.47392 34.33707,-25.669182 44.77826,6.90321 z M 56.875652,113.4472 C 78.68795,61.177909 98.278158,78.596975 100.46146,108.96629 l -3.190592,10.74626 C 86.53675,109.869 74.036909,104.32041 56.875652,113.4472 Z"
         sodipodi:nodetypes="ccccccccccccccccccccccccccccccccccccccccccccccccc" />
      <path
         style="fill:#ffffff;fill-opacity:1;stroke:none;stroke-width:0.507348px;stroke-linecap:butt;stroke-linejoin:miter;stroke-opacity:1"
         d="m 107.66553,87.400503 -2.177,56.943067 -6.23115,-11.3627 3.29885,1.58833 4.27629,-47.161285 z"
         id="path1748"
         sodipodi:nodetypes="cccccc" />
      <path
         id="path2251"
         style="opacity:1;fill:#ffffff;fill-opacity:1;stroke:none;stroke-width:0.507348px;stroke-linecap:butt;stroke-linejoin:miter;stroke-opacity:1"
         d="m 66.652746,162.10845 34.884004,88.65849 39.74049,-87.71808 -13.30386,11.3407 -4.49281,-6.5658 -2.2464,6.6308 -6.91164,10.61317 -4.66523,-7.6023 -2.073,7.71757 -3.11048,1.90058 -6.04756,-5.01106 -0.69066,-3.39817 -4.66524,4.83864 -4.146973,-9.13126 -3.110484,-6.76905 -3.110484,7.42989 z"
         sodipodi:nodetypes="ccccccccccccccccc" />
    </g>
  </g>
</svg>
