<?xml version="1.0" encoding="UTF-8" standalone="no"?>
<!DOCTYPE svg PUBLIC "-//W3C//DTD SVG 1.1//EN" "http://www.w3.org/Graphics/SVG/1.1/DTD/svg11.dtd">
<svg width="960px" height="100px" version="1.1" xmlns="http://www.w3.org/2000/svg" xmlns:xlink="http://www.w3.org/1999/xlink" xml:space="preserve" xmlns:serif="http://www.serif.com/" style="fill-rule:evenodd;clip-rule:evenodd;stroke-linejoin:round;stroke-miterlimit:2;">
    <path d="M0.001,0L0.001,0.006L0.116,0.006C0.077,0.006 0.04,0 0.001,0ZM0.116,0.006C25.268,0.069 45.638,20.472 45.638,45.638C45.638,70.844 25.206,91.276 0,91.277L0,99.999L959.988,99.999L959.988,91.271C934.807,91.24 914.41,70.819 914.406,45.639C914.41,20.458 934.807,0.037 959.988,0.006L0.12,0.006L0.116,0.006Z" style="fill:white;fill-rule:nonzero;"/>
    <path d="M796.746,48.016L832.946,48.016C834.611,48.016 835.963,46.665 835.963,45C835.963,43.335 834.611,41.983 832.946,41.983L796.746,41.983C795.081,41.983 793.729,43.335 793.729,45C793.729,46.665 795.081,48.016 796.746,48.016ZM863.113,48.016L893.288,48.016C894.953,48.016 896.305,46.665 896.305,45C896.305,43.335 894.953,41.983 893.288,41.983L863.113,41.983C861.448,41.983 860.096,43.335 860.096,45C860.096,46.665 861.448,48.016 863.113,48.016ZM66.712,48.016L102.912,48.016C104.577,48.016 105.929,46.665 105.929,45C105.929,43.335 104.577,41.983 102.912,41.983L66.712,41.983C65.047,41.983 63.695,43.335 63.695,45C63.695,46.665 65.047,48.016 66.712,48.016ZM133.079,48.016L169.279,48.016C170.944,48.016 172.296,46.665 172.296,45C172.296,43.335 170.944,41.983 169.279,41.983L133.079,41.983C131.414,41.983 130.062,43.335 130.062,45C130.062,46.665 131.414,48.016 133.079,48.016ZM199.446,48.016L235.646,48.016C237.311,48.016 238.662,46.665 238.662,45C238.662,43.335 237.311,41.983 235.646,41.983L199.446,41.983C197.781,41.983 196.429,43.335 196.429,45C196.429,46.665 197.781,48.016 199.446,48.016ZM332.179,48.016L368.379,48.016C370.044,48.016 371.395,46.665 371.395,45C371.395,43.335 370.044,41.983 368.379,41.983L332.179,41.983C330.514,41.983 329.162,43.335 329.162,45C329.162,46.665 330.514,48.016 332.179,48.016ZM398.545,48.016L434.745,48.016C436.41,48.016 437.762,46.665 437.762,45C437.762,43.335 436.41,41.983 434.745,41.983L398.545,41.983C396.88,41.983 395.528,43.335 395.528,45C395.528,46.665 396.88,48.016 398.545,48.016ZM730.379,48.016L766.579,48.016C768.244,48.016 769.596,46.665 769.596,45C769.596,43.335 768.244,41.983 766.579,41.983L730.379,41.983C728.714,41.983 727.362,43.335 727.362,45C727.362,46.665 728.714,48.016 730.379,48.016ZM265.813,48.016L302.013,48.016C303.678,48.016 305.03,46.665 305.03,45C305.03,43.335 303.678,41.983 302.013,41.983L265.813,41.983C264.148,41.983 262.796,43.335 262.796,45C262.796,46.665 264.148,48.016 265.813,48.016ZM464.912,48.016L501.112,48.016C502.777,48.016 504.129,46.665 504.129,45C504.129,43.335 502.777,41.983 501.112,41.983L464.912,41.983C463.247,41.983 461.895,43.335 461.895,45C461.895,46.665 463.247,48.016 464.912,48.016ZM531.279,48.016L567.479,48.016C569.144,48.016 570.496,46.665 570.496,45C570.496,43.335 569.144,41.983 567.479,41.983L531.279,41.983C529.614,41.983 528.262,43.335 528.262,45C528.262,46.665 529.614,48.016 531.279,48.016ZM597.645,48.016L633.846,48.016C635.51,48.016 636.862,46.665 636.862,45C636.862,43.335 635.51,41.983 633.846,41.983L597.645,41.983C595.98,41.983 594.629,43.335 594.629,45C594.629,46.665 595.98,48.016 597.645,48.016ZM664.012,48.016L700.212,48.016C701.877,48.016 703.229,46.665 703.229,45C703.229,43.335 701.877,41.983 700.212,41.983L664.012,41.983C662.348,41.983 660.996,43.335 660.996,45C660.996,46.665 662.348,48.016 664.012,48.016Z"/>
</svg>
