<?xml version="1.0" encoding="UTF-8" standalone="no"?>
<!-- Created with Inkscape (http://www.inkscape.org/) -->

<svg
   width="512"
   height="512"
   viewBox="0 0 135.46666 135.46667"
   version="1.1"
   id="svg5"
   inkscape:version="1.1.1 (3bf5ae0d25, 2021-09-20)"
   sodipodi:docname="hw40a_emoji_reallysad.svg"
   xmlns:inkscape="http://www.inkscape.org/namespaces/inkscape"
   xmlns:sodipodi="http://sodipodi.sourceforge.net/DTD/sodipodi-0.dtd"
   xmlns="http://www.w3.org/2000/svg"
   xmlns:svg="http://www.w3.org/2000/svg">
  <sodipodi:namedview
     id="namedview7"
     pagecolor="#505050"
     bordercolor="#ffffff"
     borderopacity="1"
     inkscape:pageshadow="0"
     inkscape:pageopacity="0"
     inkscape:pagecheckerboard="1"
     inkscape:document-units="mm"
     showgrid="false"
     inkscape:zoom="1.4681257"
     inkscape:cx="252.36259"
     inkscape:cy="265.30426"
     inkscape:window-width="1920"
     inkscape:window-height="1009"
     inkscape:window-x="1912"
     inkscape:window-y="-8"
     inkscape:window-maximized="1"
     inkscape:current-layer="g831"
     units="px" />
  <defs
     id="defs2" />
  <g
     inkscape:label="Ebene 1"
     inkscape:groupmode="layer"
     id="layer1">
    <g
       id="g831"
       transform="matrix(0.58671754,0,0,0.58671754,6.1279916,-19.394221)">
      <circle
         style="opacity:1;fill:#ff2c2c;fill-opacity:1;stroke:none;stroke-width:0.191754"
         id="path2565"
         cx="126.50343"
         cy="110.49982"
         r="6.4755135" />
      <circle
         style="opacity:1;fill:#ff2c2c;fill-opacity:1;stroke:none;stroke-width:0.191754"
         id="circle2647"
         cx="87.161621"
         cy="110.49982"
         r="6.4755135" />
      <path
         id="path869"
         style="opacity:1;fill:#ffffff;fill-opacity:1;stroke:none;stroke-width:1.12505px;stroke-linecap:butt;stroke-linejoin:miter;stroke-opacity:1"
         d="M 267.10742 29.220703 L 252.47852 47.103516 L 247.05859 47.103516 L 236.2207 35.183594 L 219.96484 53.605469 L 200.45703 54.148438 L 199.91602 66.068359 L 133.26562 60.109375 L 124.59766 75.824219 L 109.96484 77.990234 L 98.044922 121.33984 L 165.23633 265.47852 L 187.45312 262.00391 L 201 276.75586 L 209.12695 261.03906 L 223.75781 256.01758 L 227.55078 272.77148 L 236.76367 260.84961 L 246.51562 255.14062 L 250.85156 283.13867 L 261.14844 254.59961 L 275.7793 259.22461 L 281.73828 269.51953 L 287.69922 258.1875 L 302.87305 265.375 L 308.83203 278.92188 L 320.21094 267.96484 L 339.7168 275.23047 L 413.95508 114.83789 L 411.24609 106.70898 L 403.11914 102.91602 L 402.57617 88.828125 L 381.98438 80.699219 L 379.27539 57.941406 L 344.5957 54.691406 L 341.88672 43.310547 L 315.87695 53.064453 L 307.74805 47.646484 L 288.7832 51.439453 L 284.99023 37.349609 L 267.10742 29.220703 z M 240.82812 118.26953 L 238.86133 192.16406 C 238.80558 272.35755 180.76535 187.52043 149.2832 178.26953 C 196.72442 187.0408 222.22204 156.12333 240.82812 118.26953 z M 281.13281 120.11914 C 294.4075 164.80557 325.76777 183.87065 370.21289 183.10742 C 319.16441 222.45242 275.82819 248.61234 280.38477 192.89062 L 281.13281 120.11914 z M 181.86523 208.08789 C 181.86523 208.08789 194.46611 241.46484 182.88672 241.46484 C 171.30733 241.46484 181.86523 208.08789 181.86523 208.08789 z M 196.16797 218.64648 C 196.16797 218.64648 208.76884 252.02148 197.18945 252.02148 C 185.61006 252.02148 196.16797 218.64648 196.16797 218.64648 z "
         transform="matrix(0.45095521,0,0,0.45095521,-10.444535,33.055465)" />
      <path
         style="fill:#ffffff;fill-opacity:1;stroke:none;stroke-width:0.507348px;stroke-linecap:butt;stroke-linejoin:miter;stroke-opacity:1"
         d="m 107.66553,87.400503 -2.177,56.943067 -6.23115,-11.3627 3.29885,1.58833 4.27629,-47.161285 z"
         id="path1748"
         sodipodi:nodetypes="cccccc" />
      <path
         id="path2251"
         style="opacity:1;fill:#ffffff;fill-opacity:1;stroke:none;stroke-width:0.507348px;stroke-linecap:butt;stroke-linejoin:miter;stroke-opacity:1"
         d="m 71.567368,182.68843 29.969382,68.07851 34.21153,-65.44869 -9.4643,-7.85705 -1.72834,-11.32684 -5.01087,4.63423 -5.22224,-4.9577 -4.66523,-7.6023 -2.073,7.71757 -3.11048,1.90058 -6.04756,-5.01106 -0.69066,-3.39817 -4.66524,4.83864 -5.682792,8.58976 -4.031976,-5.23323 -3.57123,7.42989 z"
         sodipodi:nodetypes="ccccccccccccccccc" />
    </g>
  </g>
</svg>
